<svg t="1683379540111" class="icon" viewBox="0 0 1293 1024" version="1.1" xmlns="http://www.w3.org/2000/svg" p-id="1602"
     width="200" height="200">
  <path
    d="M935.127579 0a53.894737 53.894737 0 0 1 6.305684 107.412211L935.127579 107.789474H152.683789a44.463158 44.463158 0 0 0-44.570947 38.211368l-0.323368 5.389474V872.555789c0 22.096842 16.976842 40.582737 39.235368 43.331369l5.658947 0.323368h988.106106a44.463158 44.463158 0 0 0 44.570947-38.211368l0.323369-5.389474V359.154526a53.894737 53.894737 0 0 1 107.41221-6.305684l0.377263 6.305684v513.347369c0 80.734316-63.541895 146.432-143.413895 151.174737l-9.269894 0.269473H152.683789a152.144842 152.144842 0 0 1-152.414315-142.174316L0 872.555789V151.444211C0 70.709895 63.541895 5.012211 143.413895 0.269474L152.683789 0h782.44379z m-262.25179 323.368421a26.785684 26.785684 0 0 1 15.683369 4.796632l270.336 168.690526a26.085053 26.085053 0 0 1 6.413474 36.540632 29.210947 29.210947 0 0 1-6.467369 7.221894l-270.282105 168.690527a26.731789 26.731789 0 0 1-36.97179-6.359579 26.085053 26.085053 0 0 1-4.850526-15.46779v-120.239158l-227.651368 142.066527a26.731789 26.731789 0 0 1-36.97179-6.359579 26.085053 26.085053 0 0 1-4.850526-15.46779V350.046316A26.408421 26.408421 0 0 1 403.402105 323.368421a26.785684 26.785684 0 0 1 15.683369 4.796632L646.736842 470.231579v-120.185263A26.408421 26.408421 0 0 1 672.875789 323.368421z"
    fill="#1A1A1A" p-id="1603"></path>
</svg>